<svg width="37" height="45" viewBox="0 0 37 45" fill="none" xmlns="http://www.w3.org/2000/svg">
<path d="M25.7879 22.9848C25.7879 22.5388 25.6107 22.111 25.2953 21.7956C24.9799 21.4802 24.5521 21.303 24.1061 21.303H12.8939C12.4479 21.303 12.0201 21.4802 11.7047 21.7956C11.3893 22.111 11.2121 22.5388 11.2121 22.9848V24.1061C11.2121 26.3485 14.3134 28.0303 18.5 28.0303C22.6866 28.0303 25.7879 26.3485 25.7879 24.1061V22.9848ZM22.4242 15.1252C22.4242 12.9612 20.6684 11.2121 18.5 11.2121C16.3316 11.2121 14.5758 12.959 14.5758 15.1252C14.5758 16.1659 14.9892 17.1641 15.7251 17.9C16.4611 18.6359 17.4592 19.0494 18.5 19.0494C19.5408 19.0494 20.5389 18.6359 21.2749 17.9C22.0108 17.1641 22.4242 16.1659 22.4242 15.1252ZM0 5.60606C0 4.11924 0.590637 2.69332 1.64198 1.64198C2.69332 0.590637 4.11924 0 5.60606 0H31.3939C32.1301 0 32.8591 0.145005 33.5393 0.426736C34.2194 0.708467 34.8375 1.12141 35.358 1.64198C35.8786 2.16255 36.2915 2.78056 36.5733 3.46071C36.855 4.14087 37 4.86986 37 5.60606V37.5606C37 38.0067 36.8228 38.4344 36.5074 38.7498C36.192 39.0652 35.7642 39.2424 35.3182 39.2424H3.36364C3.36364 39.8372 3.59989 40.4075 4.02043 40.8281C4.44096 41.2486 5.01133 41.4848 5.60606 41.4848H35.3182C35.7642 41.4848 36.192 41.662 36.5074 41.9774C36.8228 42.2928 37 42.7206 37 43.1667C37 43.6127 36.8228 44.0405 36.5074 44.3559C36.192 44.6713 35.7642 44.8485 35.3182 44.8485H5.60606C4.11924 44.8485 2.69332 44.2578 1.64198 43.2065C0.590637 42.1552 0 40.7292 0 39.2424V5.60606ZM3.36364 5.60606V35.8788H33.6364V5.60606C33.6364 5.01133 33.4001 4.44096 32.9796 4.02043C32.559 3.59989 31.9887 3.36364 31.3939 3.36364H5.60606C5.01133 3.36364 4.44096 3.59989 4.02043 4.02043C3.59989 4.44096 3.36364 5.01133 3.36364 5.60606Z" fill="#433466"/>
</svg>
