<svg width="16" height="16" viewBox="0 0 16 16" fill="none" xmlns="http://www.w3.org/2000/svg">
<path d="M9.33334 9.50135V10.8947C8.72995 10.6814 8.08419 10.6159 7.45027 10.7039C6.81636 10.7918 6.2128 11.0306 5.69029 11.4002C5.16778 11.7697 4.74157 12.2592 4.44745 12.8276C4.15333 13.396 3.99988 14.0267 4.00001 14.6667L2.66667 14.666C2.66647 13.8519 2.85262 13.0486 3.21087 12.3176C3.56912 11.5866 4.08996 10.9473 4.73348 10.4487C5.377 9.95011 6.12612 9.60544 6.92344 9.44112C7.72076 9.27679 8.54511 9.29717 9.33334 9.50069V9.50135ZM8 8.66669C5.79 8.66669 4.00001 6.87669 4.00001 4.66669C4.00001 2.45669 5.79 0.666687 8 0.666687C10.21 0.666687 12 2.45669 12 4.66669C12 6.87669 10.21 8.66669 8 8.66669ZM8 7.33335C9.47334 7.33335 10.6667 6.14002 10.6667 4.66669C10.6667 3.19335 9.47334 2.00002 8 2.00002C6.52667 2.00002 5.33334 3.19335 5.33334 4.66669C5.33334 6.14002 6.52667 7.33335 8 7.33335ZM12 11.3334V9.33335H13.3333V11.3334H15.3333V12.6667H13.3333V14.6667H12V12.6667H10V11.3334H12Z" fill="white"/>
</svg>
